<svg width="1440" height="852" viewBox="0 0 1440 852" fill="none" xmlns="http://www.w3.org/2000/svg">
<rect x="-3" width="1446" height="852" fill="#FFF4F4"/>
<path d="M1653 9C1653 116.078 1567.67 202 1463.5 202C1359.33 202 1274 116.078 1274 9C1274 -98.0784 1359.33 -184 1463.5 -184C1567.67 -184 1653 -98.0784 1653 9Z" stroke="#FDE4E4" stroke-width="66"/>
<path d="M118.8 200.127C141.571 247.108 151.691 294.089 133.981 324.14C116.27 354.615 71.1497 368.582 20.5476 371.545C-30.0544 374.084 -85.295 366.466 -101.741 336.838C-117.765 307.633 -94.572 256.42 -67.1626 206.476C-39.3314 156.955 -6.8618 107.858 26.8729 107.011C61.0293 106.165 96.4507 153.569 118.8 200.127Z" fill="#FDE4E4"/>
</svg>
