<svg width="82" height="82" viewBox="0 0 82 82" fill="none" xmlns="http://www.w3.org/2000/svg">
<circle cx="41" cy="41" r="40" stroke="#0079AD" stroke-width="2"/>
<path d="M47.9142 46.7255C47.9142 47.241 47.4985 47.6588 46.9857 47.6588H42.5379C42.0251 47.6588 41.6095 47.241 41.6095 46.7255C41.6095 46.21 42.0251 45.7921 42.5379 45.7921H46.9857C47.4985 45.7921 47.9142 46.21 47.9142 46.7255ZM44.762 28.8439C45.2748 28.8439 45.6905 28.426 45.6905 27.9105V25.9334C45.6905 25.4178 45.2748 25 44.762 25C44.2492 25 43.8336 25.4178 43.8336 25.9334V27.9105C43.8336 28.426 44.2492 28.8439 44.762 28.8439ZM41.6095 33.6084C41.6095 34.1239 42.0251 34.5417 42.5379 34.5417H46.9857C47.4985 34.5417 47.9142 34.1239 47.9142 33.6084C47.9142 33.0928 47.4985 32.675 46.9857 32.675H42.5379C42.0251 32.675 41.6095 33.0929 41.6095 33.6084ZM46.9857 39.2335H42.5379C42.0251 39.2335 41.6095 39.6513 41.6095 40.1669C41.6095 40.6824 42.0251 41.1002 42.5379 41.1002H46.9857C47.4985 41.1002 47.9142 40.6824 47.9142 40.1669C47.9142 39.6513 47.4985 39.2335 46.9857 39.2335ZM52.0732 28.8439C52.586 28.8439 53.0017 28.426 53.0017 27.9105V25.9334C53.0017 25.4178 52.586 25 52.0732 25C51.5604 25 51.1448 25.4178 51.1448 25.9334V27.9105C51.1448 28.426 51.5604 28.8439 52.0732 28.8439ZM51.2808 34.5417H55.7289C56.2417 34.5417 56.6573 34.1239 56.6573 33.6084C56.6573 33.0928 56.2417 32.675 55.7289 32.675H51.2808C50.768 32.675 50.3523 33.0928 50.3523 33.6084C50.3523 34.1239 50.768 34.5417 51.2808 34.5417ZM51.2808 41.1002H55.7289C56.2417 41.1002 56.6573 40.6824 56.6573 40.1669C56.6573 39.6513 56.2417 39.2335 55.7289 39.2335H51.2808C50.768 39.2335 50.3523 39.6513 50.3523 40.1669C50.3523 40.6824 50.768 41.1002 51.2808 41.1002ZM48.4177 28.8439C48.9305 28.8439 49.3461 28.426 49.3461 27.9105V25.9334C49.3461 25.4178 48.9305 25 48.4177 25C47.9049 25 47.4893 25.4178 47.4893 25.9334V27.9105C47.4893 28.426 47.905 28.8439 48.4177 28.8439ZM51.2808 47.6588H55.7289C56.2417 47.6588 56.6573 47.241 56.6573 46.7255C56.6573 46.21 56.2417 45.7921 55.7289 45.7921H51.2808C50.768 45.7921 50.3523 46.21 50.3523 46.7255C50.3523 47.241 50.768 47.6588 51.2808 47.6588ZM38.2429 39.2335H33.795C33.2822 39.2335 32.8666 39.6513 32.8666 40.1669C32.8666 40.6824 33.2822 41.1002 33.795 41.1002H38.2429C38.7557 41.1002 39.1713 40.6824 39.1713 40.1669C39.1713 39.6513 38.7557 39.2335 38.2429 39.2335ZM42.0348 27.9105V25.9334C42.0348 25.4178 41.6192 25 41.1064 25C40.5936 25 40.178 25.4178 40.178 25.9334V27.9105C40.178 28.426 40.5936 28.8439 41.1064 28.8439C41.6192 28.8439 42.0348 28.426 42.0348 27.9105ZM38.2429 32.675H33.795C33.2822 32.675 32.8666 33.0928 32.8666 33.6084C32.8666 34.1239 33.2822 34.5417 33.795 34.5417H38.2429C38.7557 34.5417 39.1713 34.1239 39.1713 33.6084C39.1713 33.0928 38.7557 32.675 38.2429 32.675ZM61.0716 26.1166H56.6573V25.9334C56.6573 25.4178 56.2417 25 55.7289 25C55.2161 25 54.8004 25.4178 54.8004 25.9334V27.9105C54.8004 28.426 55.2161 28.8439 55.7289 28.8439C56.2172 28.8439 56.6175 28.4648 56.6545 27.9833H60.1431V52.3505H42.468C41.9552 52.3505 41.5396 52.7684 41.5396 53.2839C41.5396 53.7994 41.9552 54.2172 42.468 54.2172H61.0716C61.5844 54.2172 62 53.7994 62 53.2839V27.05C62 26.5344 61.5844 26.1166 61.0716 26.1166ZM38.015 45.9786C38.3776 46.3431 38.3776 46.934 38.015 47.2986C37.6523 47.6631 37.0646 47.6631 36.7019 47.2986L36.663 47.2595L35.9553 47.9709C37.2072 49.4571 37.9627 51.3781 37.9627 53.4736C37.9627 58.1751 34.1579 62 29.4813 62C24.8047 61.9999 21 58.175 21 53.4735C21 49.4288 23.8158 46.0328 27.5802 45.1629C27.5731 45.1162 27.5694 45.0681 27.5694 45.0194C27.5694 44.5039 27.985 44.086 28.4978 44.086H30.4648C30.9776 44.086 31.3933 44.5039 31.3933 45.0194C31.3933 45.0682 31.3895 45.1162 31.3824 45.1629C32.572 45.4379 33.6671 45.9651 34.6083 46.6852L35.3502 45.9395L35.3114 45.9006C34.9488 45.5361 34.9488 44.9452 35.3114 44.5806C35.6742 44.216 36.2618 44.216 36.6246 44.5806L37.3115 45.2712C37.3143 45.2739 37.3171 45.2767 37.3198 45.2795C37.3226 45.2823 37.3253 45.2851 37.328 45.2879L38.015 45.9786ZM29.4814 46.8136C25.8287 46.8136 22.8569 49.8012 22.8569 53.4735C22.8569 57.1457 25.8287 60.1332 29.4814 60.1332C33.1342 60.1332 36.106 57.1456 36.106 53.4735C36.106 49.8013 33.1342 46.8136 29.4814 46.8136ZM28.4521 41.1002C28.9649 41.1002 29.3805 40.6824 29.3805 40.1669V27.9833H32.8696C32.9065 28.4648 33.3068 28.8439 33.7952 28.8439C34.308 28.8439 34.7236 28.426 34.7236 27.9105V25.9334C34.7236 25.4178 34.308 25 33.7952 25C33.2824 25 32.8668 25.4178 32.8668 25.9334V26.1166H28.4521C27.9393 26.1166 27.5237 26.5344 27.5237 27.05V40.1669C27.5237 40.6824 27.9394 41.1002 28.4521 41.1002ZM31.4478 52.5401H30.4096V49.8811C30.4096 49.3655 29.994 48.9477 29.4812 48.9477C28.9684 48.9477 28.5528 49.3655 28.5528 49.8811V53.4735C28.5528 53.989 28.9684 54.4068 29.4812 54.4068H31.4478C31.9606 54.4068 32.3763 53.989 32.3763 53.4735C32.3763 52.9579 31.9606 52.5401 31.4478 52.5401ZM37.4508 28.8439C37.9636 28.8439 38.3792 28.426 38.3792 27.9105V25.9334C38.3792 25.4178 37.9636 25 37.4508 25C36.938 25 36.5223 25.4178 36.5223 25.9334V27.9105C36.5223 28.426 36.938 28.8439 37.4508 28.8439Z" fill="#0079AD"/>
</svg>
