<svg width="82" height="82" viewBox="0 0 82 82" fill="none" xmlns="http://www.w3.org/2000/svg">
<circle cx="41" cy="41" r="40" stroke="#00AD8E" stroke-width="2"/>
<path d="M47.7916 53.625V50.7083C47.7916 49.1612 47.177 47.6775 46.083 46.5835C44.9891 45.4896 43.5053 44.875 41.9583 44.875H30.2916C28.7445 44.875 27.2608 45.4896 26.1668 46.5835C25.0728 47.6775 24.4583 49.1612 24.4583 50.7083V53.625" stroke="#00AD8E" stroke-width="2" stroke-linecap="round" stroke-linejoin="round"/>
<path d="M36.1251 39.0417C39.3467 39.0417 41.9584 36.43 41.9584 33.2083C41.9584 29.9867 39.3467 27.375 36.1251 27.375C32.9034 27.375 30.2917 29.9867 30.2917 33.2083C30.2917 36.43 32.9034 39.0417 36.1251 39.0417Z" stroke="#00AD8E" stroke-width="2" stroke-linecap="round" stroke-linejoin="round"/>
<path d="M56.5417 53.625V50.7083C56.5408 49.4158 56.1106 48.1603 55.3187 47.1388C54.5269 46.1173 53.4182 45.3877 52.1667 45.0646" stroke="#00AD8E" stroke-width="2" stroke-linecap="round" stroke-linejoin="round"/>
<path d="M46.3333 27.5646C47.588 27.8858 48.7002 28.6156 49.4944 29.6388C50.2886 30.662 50.7197 31.9204 50.7197 33.2156C50.7197 34.5109 50.2886 35.7693 49.4944 36.7925C48.7002 37.8156 47.588 38.5454 46.3333 38.8667" stroke="#00AD8E" stroke-width="2" stroke-linecap="round" stroke-linejoin="round"/>
</svg>
