<svg width="82" height="82" viewBox="0 0 82 82" fill="none" xmlns="http://www.w3.org/2000/svg">
<circle cx="41" cy="41" r="40" stroke="#0079AD" stroke-width="2"/>
<path d="M47.7917 53.625V50.7083C47.7917 49.1612 47.1771 47.6775 46.0832 46.5835C44.9892 45.4896 43.5055 44.875 41.9584 44.875H30.2917C28.7446 44.875 27.2609 45.4896 26.1669 46.5835C25.073 47.6775 24.4584 49.1612 24.4584 50.7083V53.625" stroke="#0079AD" stroke-width="2" stroke-linecap="round" stroke-linejoin="round"/>
<path d="M36.125 39.0417C39.3466 39.0417 41.9583 36.43 41.9583 33.2083C41.9583 29.9867 39.3466 27.375 36.125 27.375C32.9033 27.375 30.2916 29.9867 30.2916 33.2083C30.2916 36.43 32.9033 39.0417 36.125 39.0417Z" stroke="#0079AD" stroke-width="2" stroke-linecap="round" stroke-linejoin="round"/>
<path d="M56.5416 53.6251V50.7084C56.5407 49.416 56.1105 48.1604 55.3186 47.1389C54.5268 46.1174 53.4181 45.3878 52.1666 45.0647" stroke="#0079AD" stroke-width="2" stroke-linecap="round" stroke-linejoin="round"/>
<path d="M46.3334 27.5647C47.5881 27.886 48.7003 28.6157 49.4945 29.6389C50.2887 30.6621 50.7198 31.9205 50.7198 33.2157C50.7198 34.511 50.2887 35.7694 49.4945 36.7926C48.7003 37.8158 47.5881 38.5455 46.3334 38.8668" stroke="#0079AD" stroke-width="2" stroke-linecap="round" stroke-linejoin="round"/>
</svg>
