<svg width="82" height="82" viewBox="0 0 82 82" fill="none" xmlns="http://www.w3.org/2000/svg">
<circle cx="41" cy="41" r="40" stroke="#0079AD" stroke-width="2"/>
<path d="M47.3334 53.25V50.0833C47.3334 48.4036 46.6661 46.7927 45.4784 45.605C44.2907 44.4173 42.6797 43.75 41 43.75H29.9167C28.237 43.75 26.6261 44.4173 25.4384 45.605C24.2506 46.7927 23.5834 48.4036 23.5834 50.0833V53.25" stroke="#0079AD" stroke-width="2" stroke-linecap="round" stroke-linejoin="round"/>
<path d="M35.4583 37.4167C38.9561 37.4167 41.7917 34.5811 41.7917 31.0833C41.7917 27.5855 38.9561 24.75 35.4583 24.75C31.9605 24.75 29.125 27.5855 29.125 31.0833C29.125 34.5811 31.9605 37.4167 35.4583 37.4167Z" stroke="#0079AD" stroke-width="2" stroke-linecap="round" stroke-linejoin="round"/>
<path d="M48.9166 37.4167L52.0833 40.5833L58.4166 34.25" stroke="#0079AD" stroke-width="2" stroke-linecap="round" stroke-linejoin="round"/>
</svg>
