<svg width="50" height="50" viewBox="0 0 50 50" fill="none" xmlns="http://www.w3.org/2000/svg">
<g filter="url(#filter0_dd_50_5)">
<circle cx="25" cy="21" r="21" fill="white"/>
</g>
<circle cx="25" cy="21" r="20" fill="#05957B"/>
<path d="M33.3996 13.695H31.8636L31.4796 12.4634C31.2307 11.7407 30.7689 11.1153 30.1583 10.6739C29.5477 10.2326 28.8185 9.99707 28.0717 10H21.9278C21.1737 10.0015 20.439 10.246 19.8276 10.699C19.2161 11.152 18.7587 11.7907 18.5199 12.525L18.1359 13.7566H16.5999C15.6452 13.7566 14.7295 14.1459 14.0544 14.8389C13.3793 15.5318 13 16.4717 13 17.4516V27.305C13 28.285 13.3793 29.2248 14.0544 29.9178C14.7295 30.6107 15.6452 31 16.5999 31H33.3996C34.3543 31 35.27 30.6107 35.9451 29.9178C36.6202 29.2248 36.9995 28.285 36.9995 27.305V17.4516C37.0075 16.9612 36.9202 16.4741 36.7429 16.0187C36.5655 15.5633 36.3016 15.1486 35.9666 14.799C35.6315 14.4493 35.2319 14.1716 34.7912 13.9821C34.3505 13.7925 33.8774 13.695 33.3996 13.695ZM34.5996 27.2434C34.5996 27.5701 34.4731 27.8833 34.2481 28.1143C34.023 28.3453 33.7178 28.4751 33.3996 28.4751H16.5999C16.2817 28.4751 15.9765 28.3453 15.7514 28.1143C15.5264 27.8833 15.4 27.5701 15.4 27.2434V17.39C15.4 17.0634 15.5264 16.7501 15.7514 16.5191C15.9765 16.2881 16.2817 16.1584 16.5999 16.1584H18.9999C19.2615 16.1724 19.5205 16.0981 19.7372 15.9469C19.9539 15.7956 20.1164 15.5758 20.1999 15.3208L20.8478 13.3009C20.9283 13.0563 21.0817 12.8438 21.2863 12.6935C21.4908 12.5432 21.7362 12.4627 21.9878 12.4634H28.1317C28.3833 12.4627 28.6287 12.5432 28.8332 12.6935C29.0378 12.8438 29.1912 13.0563 29.2717 13.3009L29.9196 15.3208C29.9967 15.5558 30.1409 15.7614 30.3336 15.9108C30.5263 16.0603 30.7584 16.1465 30.9996 16.1584H33.3996C33.7178 16.1584 34.023 16.2881 34.2481 16.5191C34.4731 16.7501 34.5996 17.0634 34.5996 17.39V27.2434ZM24.9998 16.1584C24.0504 16.1584 23.1224 16.4473 22.3331 16.9887C21.5437 17.53 20.9285 18.2995 20.5652 19.1997C20.2019 20.0999 20.1069 21.0905 20.2921 22.0462C20.4773 23.0019 20.9344 23.8797 21.6057 24.5687C22.277 25.2578 23.1322 25.727 24.0633 25.9171C24.9944 26.1072 25.9595 26.0096 26.8366 25.6367C27.7137 25.2638 28.4633 24.6324 28.9907 23.8222C29.5181 23.012 29.7997 22.0595 29.7997 21.0851C29.7997 19.7784 29.2939 18.5253 28.3938 17.6014C27.4936 16.6774 26.2728 16.1584 24.9998 16.1584ZM24.9998 23.5484C24.5251 23.5484 24.0611 23.4039 23.6664 23.1332C23.2717 22.8626 22.9641 22.4779 22.7825 22.0277C22.6008 21.5776 22.5533 21.0823 22.6459 20.6045C22.7385 20.1266 22.9671 19.6877 23.3027 19.3432C23.6384 18.9987 24.066 18.7641 24.5315 18.669C24.9971 18.574 25.4796 18.6228 25.9182 18.8092C26.3567 18.9957 26.7315 19.3114 26.9952 19.7165C27.2589 20.1216 27.3997 20.5979 27.3997 21.0851C27.3997 21.7384 27.1468 22.3649 26.6968 22.8269C26.2467 23.2889 25.6363 23.5484 24.9998 23.5484Z" fill="white"/>
<defs>
<filter id="filter0_dd_50_5" x="0" y="0" width="50" height="50" filterUnits="userSpaceOnUse" color-interpolation-filters="sRGB">
<feFlood flood-opacity="0" result="BackgroundImageFix"/>
<feColorMatrix in="SourceAlpha" type="matrix" values="0 0 0 0 0 0 0 0 0 0 0 0 0 0 0 0 0 0 127 0" result="hardAlpha"/>
<feOffset dy="4"/>
<feGaussianBlur stdDeviation="2"/>
<feComposite in2="hardAlpha" operator="out"/>
<feColorMatrix type="matrix" values="0 0 0 0 0.0196078 0 0 0 0 0.584314 0 0 0 0 0.482353 0 0 0 0.32 0"/>
<feBlend mode="normal" in2="BackgroundImageFix" result="effect1_dropShadow_50_5"/>
<feColorMatrix in="SourceAlpha" type="matrix" values="0 0 0 0 0 0 0 0 0 0 0 0 0 0 0 0 0 0 127 0" result="hardAlpha"/>
<feOffset dy="4"/>
<feGaussianBlur stdDeviation="2"/>
<feComposite in2="hardAlpha" operator="out"/>
<feColorMatrix type="matrix" values="0 0 0 0 0.0196078 0 0 0 0 0.584314 0 0 0 0 0.482353 0 0 0 0.32 0"/>
<feBlend mode="normal" in2="effect1_dropShadow_50_5" result="effect2_dropShadow_50_5"/>
<feBlend mode="normal" in="SourceGraphic" in2="effect2_dropShadow_50_5" result="shape"/>
</filter>
</defs>
</svg>
