<svg width="18" height="18" viewBox="0 0 18 18" fill="none" xmlns="http://www.w3.org/2000/svg">
<g clip-path="url(#clip0_77_53)">
<path d="M11.2876 3C12.0201 3.14292 12.6934 3.50119 13.2211 4.02895C13.7489 4.55671 14.1071 5.22995 14.2501 5.9625M11.2876 0C12.8095 0.169077 14.2288 0.850631 15.3123 1.93276C16.3957 3.01488 17.0791 4.43326 17.2501 5.955M16.5001 11.94V14.19C16.5009 14.3989 16.4581 14.6056 16.3745 14.797C16.2908 14.9884 16.168 15.1602 16.0141 15.3014C15.8602 15.4426 15.6785 15.5501 15.4806 15.617C15.2828 15.6839 15.0731 15.7088 14.8651 15.69C12.5572 15.4392 10.3403 14.6506 8.39257 13.3875C6.58044 12.236 5.04407 10.6996 3.89257 8.8875C2.62506 6.9309 1.83625 4.70325 1.59007 2.385C1.57133 2.1776 1.59598 1.96857 1.66245 1.77122C1.72892 1.57387 1.83575 1.39252 1.97615 1.23872C2.11654 1.08491 2.28743 0.962032 2.47792 0.877891C2.6684 0.793751 2.87433 0.750196 3.08257 0.75H5.33257C5.69655 0.746418 6.04942 0.875309 6.32539 1.11265C6.60137 1.34999 6.78163 1.67959 6.83257 2.04C6.92754 2.76005 7.10366 3.46705 7.35757 4.1475C7.45848 4.41594 7.48032 4.70769 7.4205 4.98816C7.36069 5.26863 7.22172 5.52608 7.02007 5.73L6.06757 6.6825C7.13524 8.56016 8.68991 10.1148 10.5676 11.1825L11.5201 10.23C11.724 10.0284 11.9814 9.88939 12.2619 9.82957C12.5424 9.76975 12.8341 9.79159 13.1026 9.8925C13.783 10.1464 14.49 10.3225 15.2101 10.4175C15.5744 10.4689 15.9071 10.6524 16.145 10.9331C16.3828 11.2138 16.5092 11.5722 16.5001 11.94Z" stroke="#87F7E3" stroke-width="2" stroke-linecap="round" stroke-linejoin="round"/>
</g>
<defs>
<clipPath id="clip0_77_53">
<rect width="18" height="18" fill="white"/>
</clipPath>
</defs>
</svg>
